<?xml version="1.0" encoding="UTF-8"?>
<svg width="1020" height="290" version="1.1" viewBox="0 0 1020 290" xmlns="http://www.w3.org/2000/svg">
 <g transform="translate(.54492 .46737)">
  <rect x="-.54492" y="-.46737" width="1020.5" height="290.16" style="fill:#000000;stroke-width:.94109"/>
  <g transform="matrix(2.56 0 0 2.56 47.827 14.995)">
   <rect width="100" height="100" rx="50" fill="#ffffff"/>
   <path d="m55.32 17.66 22.5 64.68h-10.9l-16.79-48.51-16.96 48.51h-10.99l22.68-64.68zm-11.16 44.12h11.77l2.55 7.12h-16.79z" fill="#000000"/>
  </g>
  <g style="fill:#000000" aria-label="mbeep">
   <path d="m354.94 120.47 2.4375 10.875v94.875h-22.875v-105.75zm88.5-1.125q6.375 0 12 2.625 5.625 2.4375 9.75 7.125 4.3125 4.6875 6.5625 11.25 2.4375 6.375 2.4375 13.875v72h-22.5v-57.562q0-6.375-0.1875-12 0-5.8125-1.125-10.312t-3.75-6.9375q-2.4375-2.625-7.6875-2.625-1.3125 0-5.625 0.5625t-9.9375 3.1875v-14.812q5.0625-3 10.312-4.6875t9.75-1.6875zm-32.438 14.438q2.25 3.375 3.1875 7.3125 1.125 3.75 1.3125 7.875 0.375 4.125 0.1875 8.625 0 4.3125 0 9.1875v59.438h-22.688v-57.562q0-6.375 0-12 0-5.8125-1.125-10.312t-3.75-6.9375q-2.625-2.625-7.6875-2.625-2.25 0-6.75 0.9375-4.3125 0.75-8.625 2.8125v-14.812q4.5-2.625 9.5625-4.3125 5.25-1.6875 10.312-1.6875 8.625 0 14.438 3.5625 6 3.5625 11.625 10.5z" style="fill:#ffffff"/>
   <path d="m506.63 80.537h22.688v133.13q-0.1875 2.625-0.5625 6t-0.5625 6.5625h-21.562zm92.438 72q2.25 8.625 2.25 18.938 0 10.688-2.625 20.812-2.4375 10.125-7.6875 18-5.0625 7.6875-12.938 12.375-7.6875 4.5-18.188 4.5-6.5625 0-12.562-1.5t-10.312-4.125v-19.5q2.8125 3.1875 6.5625 5.25 3.9375 2.0625 8.625 2.0625 5.625 0 10.125-2.8125 4.6875-2.8125 7.875-7.5 3.375-4.875 5.25-11.438 2.0625-6.5625 2.0625-14.062 0-7.3125-1.875-13.875-1.6875-6.5625-4.875-11.625-3-5.0625-7.5-8.0625t-10.125-3q-4.875 0-9 2.0625-3.9375 1.875-7.125 5.625v-20.062q4.3125-2.4375 9.5625-3.75t10.875-1.3125q6.1875 0 12.562 1.6875t11.812 5.625q5.625 3.9375 10.125 10.312 4.6875 6.375 7.125 15.375z" style="fill:#ffffff"/>
   <path d="m676.13 119.54q10.125 0.9375 18.188 5.4375 8.25 4.5 14.062 11.625t8.8125 16.312q3.1875 9.1875 3.1875 19.125 0 4.5-0.5625 9h-64.312v-16.5h43.312q0-4.875-1.6875-9.375-1.5-4.5-4.6875-8.25-3-3.9375-7.125-6.5625t-9.1875-3.1875zm-0.75 89.062q2.0625 0 5.0625-0.375 3.1875-0.5625 6.5625-1.6875 3.5625-1.3125 6.9375-3.1875 3.5625-1.875 6.1875-4.5l8.25 12.562q-6.1875 7.6875-14.438 11.625t-21 3.9375q-10.312 0-19.312-4.125-9-4.3125-15.375-11.625t-10.125-17.062-3.75-21q0-10.688 3.375-20.25 3.5625-9.5625 9.5625-16.688 6-7.3125 13.875-11.812 8.0625-4.5 17.25-5.0625v18q-6.9375 1.3125-11.438 5.625t-7.125 9.9375q-2.4375 5.4375-3.5625 11.25-0.9375 5.8125-0.9375 9.9375 0 7.3125 1.6875 13.688 1.875 6.1875 5.625 10.875 3.75 4.5 9.1875 7.3125 5.625 2.625 13.5 2.625z" style="fill:#ffffff"/>
   <path d="m800.63 119.54q10.125 0.9375 18.188 5.4375 8.25 4.5 14.062 11.625t8.8125 16.312q3.1875 9.1875 3.1875 19.125 0 4.5-0.5625 9h-64.312v-16.5h43.312q0-4.875-1.6875-9.375-1.5-4.5-4.6875-8.25-3-3.9375-7.125-6.5625t-9.1875-3.1875zm-0.75 89.062q2.0625 0 5.0625-0.375 3.1875-0.5625 6.5625-1.6875 3.5625-1.3125 6.9375-3.1875 3.5625-1.875 6.1875-4.5l8.25 12.562q-6.1875 7.6875-14.438 11.625t-21 3.9375q-10.312 0-19.312-4.125-9-4.3125-15.375-11.625t-10.125-17.062-3.75-21q0-10.688 3.375-20.25 3.5625-9.5625 9.5625-16.688 6-7.3125 13.875-11.812 8.0625-4.5 17.25-5.0625v18q-6.9375 1.3125-11.438 5.625t-7.125 9.9375q-2.4375 5.4375-3.5625 11.25-0.9375 5.8125-0.9375 9.9375 0 7.3125 1.6875 13.688 1.875 6.1875 5.625 10.875 3.75 4.5 9.1875 7.3125 5.625 2.625 13.5 2.625z" style="fill:#ffffff"/>
   <path d="m896.44 120.47 2.4375 10.688v136.69h-22.875v-147.38zm72 32.062q2.25 8.625 2.25 19.312t-2.625 20.812q-2.4375 9.9375-7.6875 17.625-5.0625 7.6875-12.938 12.375-7.6875 4.5-18.188 4.5-6.5625 0-12.562-1.5-5.8125-1.5-10.125-3.9375v-19.5q6.1875 7.3125 15.188 7.3125 5.625 0 10.125-2.8125 4.6875-2.8125 7.875-7.5 3.375-4.875 5.25-11.438 1.875-6.75 1.875-14.25 0-7.3125-1.6875-13.875t-4.875-11.625q-3-5.0625-7.5-8.0625-4.3125-3-10.125-3-4.875 0-9 2.0625-3.9375 1.875-7.125 5.4375v-19.875q4.3125-2.4375 9.5625-3.75t10.875-1.3125q6.1875 0 12.562 1.6875t11.812 5.625q5.625 3.9375 10.125 10.312t6.9375 15.375z" style="fill:#ffffff"/>
  </g>
 </g>
</svg>
